<?xml version="1.0" encoding="UTF-8"?>
<svg xmlns="http://www.w3.org/2000/svg" viewBox="0 0 370 366" fill="#7A2E1F" fill-rule="nonzero">
  <path d="M183.507995,1.3093719 C196.757138,1.3093719 207.498009,12.1068754 207.498009,25.4258768 C207.498009,38.7448781 196.757138,49.5405984 183.507995,49.5405984 C170.258852,49.5405984 159.517981,38.7448781 159.517981,25.4258768 C159.517981,12.1068754 170.258852,1.3093719 183.507995,1.3093719" transform="translate(183.507995, 25.424985) scale(-1, 1) rotate(-180.000000) translate(-183.507995, -25.424985) "/>
  <path d="M183.507995,363.345473 C170.258852,363.345473 159.517981,352.547969 159.517981,339.228968 C159.517981,325.909966 170.258852,315.112463 183.507995,315.112463 C196.757138,315.112463 207.498009,325.909966 207.498009,339.228968 C207.498009,352.547969 196.757138,363.345473 183.507995,363.345473" transform="translate(183.507995, 339.228968) scale(-1, 1) rotate(-180.000000) translate(-183.507995, -339.228968) "/>
  <path d="M340.454376,206.443214 C327.205233,206.443214 316.464362,195.64571 316.464362,182.326709 C316.464362,169.007708 327.205233,158.210204 340.454376,158.210204 C353.703519,158.210204 364.44439,169.007708 364.44439,182.326709 C364.44439,195.64571 353.703519,206.443214 340.454376,206.443214" transform="translate(340.454376, 182.326709) scale(-1, 1) rotate(-180.000000) translate(-340.454376, -182.326709) "/>
  <path d="M50.5516279,182.326531 C50.5516279,195.645532 39.8107573,206.443035 26.5616141,206.443035 C13.3124709,206.443035 2.57160034,195.645532 2.57160034,182.326531 C2.57160034,169.007529 13.3124709,158.210026 26.5616141,158.210026 C39.8107573,158.210026 50.5516279,169.007529 50.5516279,182.326531" transform="translate(26.561614, 182.326531) scale(-1, 1) rotate(-180.000000) translate(-26.561614, -182.326531) "/>
  <path d="M313.648143,275.783208 C312.880051,275.884852 312.110185,275.947266 311.336772,275.972231 C308.468401,276.066743 305.598256,276.257549 302.795518,276.876333 C294.366019,278.736249 286.349835,282.955389 279.795332,289.546235 C271.225696,298.159273 266.673908,309.281326 266.139969,320.560303 L266.139969,324.453111 C266.139969,324.520874 266.1311,324.58507 266.129326,324.65105 C266.024667,329.439043 262.138086,333.290836 257.348598,333.290836 L238.518814,333.292619 C233.663692,333.292619 229.727442,329.333832 229.727442,324.453111 L229.727442,305.524044 C229.727442,300.711086 233.559033,296.804012 238.321913,296.697018 C238.387546,296.695235 238.451406,296.686319 238.518814,296.686319 L242.392977,296.686319 C253.612797,296.147781 264.676514,291.573777 273.244376,282.958956 C279.79888,276.371676 283.99589,268.311443 285.846052,259.837498 C286.46159,257.021766 286.651395,254.134704 286.745411,251.252992 C286.770246,250.4755 286.834105,249.699792 286.933443,248.92765 C287.644771,243.453111 290.231094,238.176511 294.706605,234.157093 C303.615053,226.159273 317.346692,226.118258 326.29594,234.071498 C336.683807,243.303319 337.051001,259.270428 327.393974,268.97659 C323.532228,272.858698 318.673558,275.12341 313.648143,275.783208" transform="translate(282.049638, 280.712587) scale(-1, 1) rotate(-180.000000) translate(-282.049638, -280.712587) "/>
  <path d="M250.251286,287.553289 C249.483194,287.65315 248.713328,287.717347 247.939914,287.742312 C245.071543,287.836824 242.201398,288.02763 239.39866,288.646414 C230.969161,290.506331 222.952977,294.725471 216.398474,301.314533 C207.828838,309.929354 203.277051,321.051407 202.743111,332.330384 L202.743111,336.223192 C202.743111,336.290955 202.734242,336.355152 202.732468,336.421131 C202.640226,340.638488 199.612205,344.121151 195.620965,344.893293 C194.858195,345.110848 194.068816,345.26599 193.236865,345.26599 L174.407081,345.264207 C169.617593,345.264207 165.731012,341.414197 165.624579,336.626204 C165.622805,336.558441 165.615709,336.494244 165.615709,336.428264 L165.615709,332.533674 C165.079996,321.254696 160.528209,310.132643 151.960346,301.519606 C145.405843,294.92876 137.387885,290.711403 128.96016,288.849703 C126.157423,288.230919 123.287278,288.040113 120.418906,287.945601 C119.647267,287.920636 118.873853,287.858223 118.107535,287.756578 C112.659936,287.0415 107.411012,284.443323 103.412676,279.942431 C95.456804,270.987012 95.4177786,257.18297 103.329303,248.186537 C112.510929,237.743897 128.394291,237.376551 138.051318,247.082713 C141.913065,250.964821 144.165898,255.849108 144.822235,260.902804 C144.921573,261.673162 144.983659,262.448871 145.010267,263.224579 C145.102509,266.108074 145.294089,268.995136 145.907853,271.812651 C147.759788,280.284813 151.956799,288.343263 158.511302,294.934109 C165.612161,302.072409 174.433689,306.393194 183.629506,307.985625 C193.222673,306.559035 202.462838,302.152655 209.847519,294.729037 C216.402022,288.139974 220.599033,280.081524 222.449194,271.607579 C223.064732,268.791847 223.254538,265.904785 223.348554,263.023073 C223.373388,262.245582 223.437248,261.469873 223.536585,260.697731 C224.247913,255.223192 226.834237,249.946592 231.309747,245.927175 C240.218195,237.929354 253.949835,237.88834 262.899082,245.841579 C273.28695,255.0734 273.65237,271.040509 263.997117,280.746671 C260.13537,284.62878 255.2767,286.893491 250.251286,287.553289" transform="translate(184.197457, 292.584313) scale(-1, 1) rotate(-180.000000) translate(-184.197457, -292.584313) "/>
  <path d="M118.245543,78.7107489 C119.011861,78.6091043 119.783501,78.546691 120.556915,78.5217257 C123.423512,78.4272141 126.295431,78.2364077 129.098168,77.6176242 C137.527668,75.7577075 145.543852,71.5385674 152.098355,64.9477213 C160.667991,56.3346839 165.218004,45.2126312 165.753717,33.9336536 L165.753717,30.0408459 C165.753717,29.9730829 165.762587,29.9088864 165.764361,29.8429066 C165.856603,25.6255497 168.88285,22.1428868 172.87409,21.3707449 C173.63686,21.1531899 174.426239,20.9980482 175.259964,20.9980482 L194.089748,20.9998315 C198.879236,20.9998315 202.765817,24.8498414 202.870476,29.6378343 C202.87225,29.7055973 202.88112,29.7697938 202.88112,29.8357736 L202.88112,33.7303645 C203.416833,45.0093421 207.966847,56.1313948 216.534709,64.7444322 C223.090986,71.3352783 231.10717,75.5526351 239.536669,77.4143351 C242.339406,78.0331186 245.209551,78.223925 248.076149,78.3184366 C248.849562,78.3434019 249.621202,78.4058152 250.389294,78.5074598 C255.836893,79.2207548 261.084044,81.8224984 265.082379,86.3216068 C273.038251,95.2770259 273.07905,109.081068 265.167526,118.075718 C255.984126,128.520141 240.100764,128.887488 230.445511,119.181325 C226.583764,115.299217 224.330931,110.41493 223.674594,105.361234 C223.575256,104.590876 223.511396,103.815167 223.486562,103.039459 C223.392546,100.155964 223.20274,97.2689022 222.587202,94.4513869 C220.737041,85.9792252 216.54003,77.9207746 209.985527,71.3299286 C202.884667,64.1916286 194.06314,59.870844 184.867323,58.2784128 C175.274155,59.7050029 166.033991,64.1095997 158.64931,71.5332177 C152.094807,78.1240637 147.896022,86.1825143 146.045861,94.6546759 C145.432097,97.4721913 145.242291,100.359253 145.148275,103.240965 C145.121667,104.018456 145.059581,104.794165 144.95847,105.566307 C144.248916,111.040846 141.662592,116.317446 137.185308,120.336863 C128.278634,128.334684 114.54522,128.375698 105.597747,120.422459 C95.2081054,111.190638 94.8426852,95.2235287 104.497938,85.5173667 C108.359685,81.6352585 113.218355,79.3705468 118.245543,78.7107489" transform="translate(184.298143, 73.679726) scale(-1, 1) rotate(-180.000000) translate(-184.298143, -73.679726) "/>
  <path d="M130.690407,101.56356 C130.756041,101.56356 130.819901,101.570693 130.885534,101.572476 C135.650188,101.679471 139.481779,105.586544 139.481779,110.401286 L139.481779,121.87107 C141.18116,130.80509 145.426066,139.346798 152.306964,146.263976 C158.861467,152.854822 166.879425,157.073962 175.30715,158.933879 C178.109887,159.552663 180.980032,159.741686 183.848404,159.837981 C184.620043,159.862946 185.393457,159.925359 186.161549,160.027004 C186.315877,160.046619 186.470205,160.084067 186.624533,160.10725 C192.318702,160.392568 197.931272,162.70186 202.279063,167.072575 C206.14081,170.954684 208.393643,175.838971 209.04998,180.892667 C209.149318,181.663025 209.213178,182.438734 209.238012,183.214442 C209.332028,186.097937 209.521834,188.983215 210.137372,191.802514 C211.987533,200.274676 216.184544,208.33491 222.740821,214.923972 C231.090495,223.317672 241.811853,227.845312 252.735434,228.571089 L257.386559,228.571089 C259.288163,228.571089 261.031891,229.195223 262.468738,230.227717 C262.482929,230.238417 262.495346,230.250899 262.509537,230.259815 C262.906887,230.550483 263.286498,230.860766 263.630632,231.212064 C263.974766,231.554446 264.279874,231.930709 264.565469,232.326588 C264.57966,232.34442 264.595625,232.360469 264.608042,232.378302 C265.635122,233.822724 266.255981,235.57743 266.255981,237.48906 L266.255981,242.161143 C266.976178,253.144103 271.481845,263.921991 279.831519,272.31569 C286.386022,278.906536 294.40398,283.125676 302.831705,284.985593 C305.634443,285.604377 308.504588,285.795183 311.372959,285.889695 C312.146373,285.91466 312.918012,285.978856 313.686104,286.078718 C319.13193,286.793796 324.380854,289.393756 328.37919,293.892865 C336.335062,302.848284 336.374087,316.652326 328.464336,325.648759 C319.280936,336.091399 303.397574,336.460529 293.740547,326.752583 C289.878801,322.870475 287.625967,317.986187 286.971404,312.934275 C286.870293,312.162134 286.808207,311.388209 286.783372,310.610717 C286.689356,307.727222 286.499551,304.841943 285.884013,302.024428 C284.033851,293.550483 279.836841,285.492033 273.280564,278.901187 C264.930889,270.509271 254.209532,265.979847 243.285951,265.254069 L238.634826,265.254069 C236.733222,265.254069 234.989493,264.629936 233.552647,263.597442 C233.536682,263.586742 233.524265,263.57426 233.5083,263.56356 C233.112723,263.274676 232.733112,262.964392 232.390752,262.614878 C232.044845,262.272496 231.739737,261.89445 231.454141,261.498571 C231.441724,261.480739 231.425759,261.46469 231.413342,261.446857 C230.386263,260.002435 229.765403,258.249512 229.765403,256.337882 L229.765403,251.664016 C229.043432,240.682839 224.53954,229.903168 216.189865,221.509469 C209.633588,214.918623 201.617404,210.699483 193.187905,208.839566 C192.088097,208.597045 190.975871,208.434771 189.860098,208.302811 C188.989121,208.518583 188.112822,208.70404 187.22588,208.81995 C186.459561,208.919811 185.687922,208.982225 184.916282,209.008973 C182.047911,209.103485 179.175992,209.294291 176.373254,209.911292 C167.943755,211.772992 159.927571,215.992132 153.373068,222.581194 C144.805206,231.196015 140.253418,242.318068 139.717705,253.597045 L139.717705,257.489853 C139.717705,257.555833 139.71061,257.620029 139.708836,257.686009 C139.602403,262.475785 135.715822,266.327578 130.928108,266.327578 L119.516709,266.327578 C110.629548,268.03592 102.132641,272.303208 95.251743,279.218603 C88.6972398,285.809449 84.5002291,293.867899 82.6500676,302.341844 C82.0345297,305.15936 81.844724,308.044638 81.7507082,310.928133 C81.7258738,311.703842 81.6620139,312.47955 81.5626764,313.251692 C80.8513487,318.728014 78.2650252,324.004614 73.7895146,328.024032 C64.8810667,336.021852 51.147653,336.061083 42.2001797,328.109627 C31.8123122,318.876023 31.4451181,302.910697 41.1021452,293.202752 C44.9638917,289.320644 49.8207875,287.055932 54.8479761,286.396134 C55.6160681,286.296273 56.3877078,286.233859 57.1593476,286.207111 C60.0277188,286.112599 62.8978639,285.921793 65.7006014,285.304793 C74.1301004,283.443093 82.1462844,279.223953 88.7007876,272.63489 C97.2704235,264.021852 101.822211,252.898016 102.35615,241.619039 L102.35615,237.726231 C102.35615,237.660251 102.36502,237.596055 102.36502,237.530075 C102.432427,234.511054 104.005863,231.868296 106.35626,230.325795 C107.750533,229.318266 109.442819,228.701266 111.280563,228.660251 C111.346197,228.658468 111.411831,228.651335 111.477464,228.651335 L115.349854,228.651335 C126.569674,228.112797 137.633391,223.53701 146.203027,214.923972 C152.75753,208.33491 156.954541,200.274676 158.804702,191.802514 C159.143514,190.249314 159.347511,188.678282 159.482326,187.09655 C159.473457,187.025221 159.455718,186.953891 159.445075,186.880778 C159.345737,186.11042 159.283651,185.334711 159.257043,184.559003 C159.164801,181.675508 158.974995,178.79023 158.359457,175.972714 C156.507522,167.498769 152.310511,159.440319 145.756008,152.849473 C137.406334,144.455773 126.684976,139.928133 115.761395,139.202356 L111.11027,139.202356 C109.208666,139.202356 107.463164,138.578222 106.026317,137.545728 C106.012126,137.535028 105.999709,137.520762 105.983744,137.510063 C105.586394,137.221179 105.208557,136.912678 104.866197,136.561381 C104.520289,136.220782 104.215181,135.842736 103.929586,135.446857 C103.917169,135.429025 103.89943,135.412976 103.887013,135.395143 C102.861707,133.950721 102.239074,132.196015 102.239074,130.284384 L102.239074,125.610519 C101.518877,114.629342 97.0149841,103.851454 88.663536,95.4577548 C82.1090328,88.8669087 74.0928488,84.6477686 65.6633498,82.7878519 C62.8606123,82.1690684 59.9904672,81.978262 57.122096,81.8837504 C56.3504562,81.8587851 55.5788165,81.7963718 54.8107245,81.6947272 C49.3631253,80.9814322 44.1142011,78.3814718 40.1176393,73.8805802 C32.5147704,65.3228231 32.1599935,52.3479866 39.0444392,43.3622525 C39.5783784,42.5794112 40.1442476,41.8144023 40.782846,41.0886246 C49.966246,30.6459854 65.8478338,30.2786385 75.5048609,39.9848005 C79.3666074,43.868692 81.6194407,48.7511964 82.275778,53.8048917 C82.3751155,54.5752503 82.4372015,55.3509586 82.4638097,56.1284502 C82.5560517,59.0101621 82.7476312,61.8972238 83.3613953,64.7147391 C85.2133307,73.188684 89.4103414,81.2471346 95.9648445,87.8361974 C104.53448,96.4492349 115.598198,101.025022 126.818017,101.56356 L130.690407,101.56356 Z" transform="translate(184.247874, 183.509371) scale(-1, 1) rotate(-180.000000) translate(-184.247874, -183.509371) "/>
  <path d="M63.5941135,102.860866 C67.45586,106.742974 69.7086933,111.627261 70.3650306,116.679173 C70.4643681,117.451315 70.5264541,118.227024 70.5530624,119.002732 C70.6470782,121.886227 70.8368839,124.771506 71.4506479,127.589021 C73.3025833,136.062966 77.499594,144.121416 84.0540972,150.710479 C92.6237331,159.3253 103.687451,163.901087 114.90727,164.437842 L118.77966,164.437842 C118.845294,164.437842 118.910927,164.446758 118.974787,164.448541 C123.170024,164.54127 126.63442,167.583473 127.404286,171.595758 C127.6207,172.364333 127.773254,173.157874 127.773254,173.995995 L127.773254,192.923279 C127.773254,197.73802 123.943438,201.645094 119.178784,201.752088 C119.11315,201.753871 119.04929,201.761004 118.983657,201.761004 L115.107719,201.761004 C103.889673,202.299542 92.8259559,206.87533 84.2580939,215.488367 C77.7018168,222.07743 73.5048061,230.137664 71.6546446,238.609825 C71.0391067,241.427341 70.8493011,244.312619 70.7552852,247.196114 C70.7304508,247.971823 70.6683648,248.749314 70.5672534,249.521456 C69.8576996,254.995995 67.2696022,260.272595 62.7940916,264.292013 C53.8856437,272.289833 40.154004,272.329064 31.2047567,264.377608 C20.8168892,255.144004 20.451469,239.178678 30.1067222,229.470733 C33.9684688,225.588625 38.8271384,223.323913 43.8525531,222.665898 C44.6206451,222.564254 45.3922848,222.50184 46.1639246,222.476875 C49.0322958,222.382363 51.9024409,222.189774 54.7069523,221.572774 C63.1346774,219.712857 71.1508614,215.493717 77.7071385,208.902871 C84.8062242,201.764571 89.1043463,192.898314 90.6884251,183.65401 C89.2710914,174.008478 84.8878229,164.719593 77.5049157,157.297759 C70.9486386,150.706913 62.9324546,146.487773 54.5029555,144.627856 C51.7002181,144.009072 48.830073,143.818266 45.9617018,143.723754 C45.190062,143.698789 44.4184223,143.636376 43.6503303,143.534731 C38.202731,142.821436 32.9538068,140.219693 28.9572451,135.720584 C21.0013732,126.765165 20.9605738,112.961123 28.8720986,103.96469 C38.0554986,93.5220504 53.9388603,93.1547034 63.5941135,102.860866" transform="translate(75.368779, 183.081394) scale(-1, 1) rotate(-180.000000) translate(-75.368779, -183.081394) "/>
  <path d="M324.641792,143.599654 C323.8737,143.699515 323.103835,143.763712 322.330421,143.788677 C319.46205,143.883189 316.591905,144.073995 313.789167,144.692779 C305.359668,146.552695 297.343484,150.771835 290.788981,157.360898 C283.688121,164.499198 279.389999,173.365455 277.80592,182.611542 C279.223254,192.255291 283.606523,201.544175 290.991204,208.967793 C297.545707,215.556856 305.561891,219.77778 313.99139,221.637696 C316.794127,222.254697 319.664273,222.445503 322.532644,222.541798 C323.306057,222.566763 324.075923,222.629176 324.844015,222.730821 C330.291614,223.444116 335.540539,226.044076 339.538874,230.543185 C347.494746,239.498604 347.535546,253.304429 339.624021,262.299079 C330.440621,272.741719 314.557259,273.110849 304.900232,263.404687 C301.040259,259.522578 298.785652,254.638291 298.129315,249.584595 C298.029977,248.812454 297.967891,248.038528 297.941283,247.261037 C297.849041,244.379325 297.657462,241.492263 297.043698,238.674748 C295.193536,230.200803 290.994752,222.142353 284.440248,215.55329 C275.872386,206.940252 264.808669,202.364465 253.587076,201.825927 L249.714686,201.825927 C249.649052,201.825927 249.585192,201.817011 249.519558,201.815228 C245.324322,201.722499 241.859925,198.680296 241.090059,194.668011 C240.873645,193.901219 240.721091,193.107678 240.721091,192.269557 L240.721091,173.34049 C240.721091,168.527532 244.552682,164.618675 249.315562,164.513464 C249.381195,164.511681 249.445055,164.502765 249.512463,164.502765 L253.386627,164.502765 C264.606446,163.964227 275.670163,159.388439 284.238026,150.775402 C290.792529,144.186339 294.989539,136.127889 296.839701,127.653944 C297.455239,124.836428 297.645044,121.95115 297.73906,119.069438 C297.763895,118.291946 297.827755,117.516238 297.927092,116.744096 C298.63842,111.267774 301.224743,105.992957 305.700254,101.973539 C314.608702,93.9739357 328.340342,93.9347044 337.289589,101.886161 C347.677456,111.119765 348.04465,127.086874 338.387623,136.793036 C334.525877,140.675144 329.667207,142.939856 324.641792,143.599654" transform="translate(293.126453, 183.182956) scale(-1, 1) rotate(-180.000000) translate(-293.126453, -183.182956) "/>
</svg>
