<?xml version="1.0" encoding="UTF-8"?>
<svg xmlns="http://www.w3.org/2000/svg" viewBox="475 65 840 280" fill="currentColor" fill-rule="nonzero">
  <path d="M714.636655,143.119378 C711.576704,142.511294 707.860416,142.076184 703.558746,141.819398 C698.418029,141.516247 692.429395,141.362889 685.763137,141.362889 C674.96905,141.362889 666.36571,143.279869 660.190818,147.063899 C654.260722,150.694571 651.379934,157.11601 651.379934,166.691995 C651.379934,171.733208 652.57021,175.807906 654.920607,178.803745 C657.359698,181.920844 660.467544,184.41916 664.15545,186.227363 C667.924954,188.07123 672.13793,189.299881 676.684396,189.883 C681.372773,190.485734 685.871344,190.790668 690.050616,190.790668 C696.4366,190.790668 701.946285,190.435803 706.425343,189.736774 C709.990851,189.176838 712.74392,188.529522 714.636655,187.809095 L714.636655,143.119378 Z M732.783493,267.047256 C727.781139,272.710818 721.118428,277.149297 712.979846,280.234298 C704.915768,283.283634 694.93412,284.829701 683.313402,284.829701 C673.235965,284.829701 663.736813,284.04151 655.082031,282.48831 C646.269373,280.906578 640.10335,279.298098 636.234508,277.571924 L634.810079,276.937091 L638.774711,249.045473 L641.220897,250.056568 C644.545157,251.429661 649.71603,252.788488 656.591606,254.092035 C663.486695,255.397365 671.65366,256.058946 680.863668,256.058946 C687.877607,256.058946 693.610802,255.037151 697.910698,253.020309 C702.162699,251.026649 705.557914,248.341094 707.997005,245.043887 C710.462704,241.7021 712.197563,237.821775 713.153687,233.51169 C714.138193,229.055379 714.636655,224.493858 714.636655,219.953735 L714.636655,214.527343 C714.093846,214.64147 713.485403,214.76808 712.809553,214.903606 C710.758943,215.313751 708.353556,215.779176 705.584522,216.294531 C702.746307,216.820586 699.753764,217.241431 696.688491,217.549931 C693.571776,217.861997 690.513599,218.020705 687.600881,218.020705 C678.504401,218.020705 669.698839,217.072023 661.423668,215.201407 C653.073993,213.312958 645.643191,210.322469 639.335258,206.310184 C632.945726,202.239053 627.8192,196.812661 624.095817,190.184367 C620.363564,183.538241 618.472603,175.529721 618.472603,166.385278 C618.472603,156.884189 620.08329,148.613533 623.260317,141.799782 C626.456857,134.943234 631.005097,129.338518 636.782638,125.144343 C642.489225,121.001882 649.325776,117.93828 657.102485,116.037349 C664.776309,114.1596 673.287407,113.207351 682.39453,113.207351 C688.704237,113.207351 695.196654,113.469487 701.699715,113.984842 C708.192132,114.503765 714.241078,115.076184 719.679808,115.682485 C725.256901,116.306618 730.291185,116.984248 734.637202,117.697543 C739.02934,118.414405 742.454711,118.977908 744.906219,119.391619 L746.62334,119.68407 L746.62334,221.492669 C746.62334,230.65316 745.569652,239.177036 743.488886,246.823559 C741.370868,254.587775 737.769882,261.390826 732.783493,267.047256" transform="translate(682.547971, 199.018526) scale(-1, 1) rotate(-180.000000) translate(-682.547971, -199.018526) "/>
  <path d="M880.211919,194.414741 C875.897832,198.223737 870.632943,201.592273 864.56271,204.434753 C858.664544,207.193422 851.81735,210.062651 844.173682,212.974678 C838.571755,214.98082 833.675834,216.928116 829.626055,218.761284 C825.719962,220.526689 822.409893,222.461502 819.786318,224.508659 C817.283367,226.468437 815.419015,228.663602 814.237607,231.040658 C813.061522,233.396315 812.465497,236.190648 812.465497,239.346978 C812.465497,245.347573 815.014569,249.632693 820.258171,252.451991 C825.849455,255.456747 832.529904,256.979631 840.111487,256.979631 C849.066055,256.979631 856.823252,256.121894 863.164889,254.433168 C869.51717,252.735526 874.212642,251.084248 877.121812,249.527482 L879.534295,248.234634 L885.679031,277.299624 L884.015128,277.92554 C882.312198,278.563939 880.000827,279.287933 876.949746,280.134971 C873.951881,280.964177 870.443137,281.755934 866.517531,282.485278 C862.622081,283.203923 858.352341,283.833406 853.818292,284.352328 C849.238122,284.873033 844.626023,285.136953 840.111487,285.136953 C821.751782,285.136953 807.000159,280.789419 796.262836,272.217396 C785.381829,263.53303 779.865048,251.644185 779.865048,236.884327 C779.865048,229.408995 781.174175,222.985774 783.75695,217.792986 C786.323761,212.632296 789.791705,208.16707 794.064993,204.520349 C798.272647,200.919992 803.329992,197.760095 809.093342,195.12982 C814.640279,192.592273 820.595209,190.04046 826.784292,187.552843 C839.226318,182.508064 848.242973,177.932277 853.585913,173.953874 C858.590041,170.226907 861.022037,165.33192 861.022037,158.99251 C861.022037,152.984783 858.618423,148.744244 853.674607,146.033723 C848.388432,143.135962 840.012149,141.668357 828.781686,141.668357 C817.221281,141.668357 807.862267,142.873826 800.967178,145.250882 C793.901796,147.683218 788.665289,149.543135 785.403115,150.771785 L783.162699,151.61704 L777.106657,122.971112 L778.662354,122.300614 C781.607002,121.030949 787.14507,119.190648 795.124002,116.831425 C803.246619,114.425837 814.569324,113.206103 828.781686,113.206103 C849.32859,113.206103 865.435461,117.161324 876.657055,124.964771 C888.118122,132.930493 893.929368,144.794373 893.929368,160.224728 C893.929368,168.065623 892.739091,174.815177 890.392242,180.287933 C888.031202,185.782088 884.607605,190.534416 880.211919,194.414741" transform="translate(835.518013, 199.171528) scale(-1, 1) rotate(-180.000000) translate(-835.518013, -199.171528) "/>
  <path d="M1144.13879,278.171805 C1141.50102,278.69786 1138.64684,279.220349 1135.65075,279.723222 C1132.53404,280.243927 1129.34459,280.662988 1126.17111,280.973271 C1122.95329,281.287121 1120.05299,281.444046 1117.55181,281.444046 C1105.00512,281.444046 1093.52454,280.342005 1083.43114,278.166455 C1073.38741,276.003388 1064.84615,273.644165 1058.04685,271.160115 L1056.68983,270.664375 L1056.68983,113.823281 L1089.29206,113.823281 L1089.29206,248.800099 C1091.17237,249.236992 1094.0638,249.880741 1097.92555,250.717079 C1102.97935,251.811987 1108.13958,252.364791 1113.26433,252.364791 C1121.23262,252.364791 1127.83502,251.811987 1132.88881,250.718863 C1137.95503,249.618605 1141.62697,248.66279 1143.80175,247.871032 L1146.05813,247.052526 L1151.77359,276.14783 L1150.04937,276.722033 C1148.72783,277.162493 1146.7943,277.636834 1144.13879,278.171805" transform="translate(1104.231711, 197.633664) scale(-1, 1) rotate(-180.000000) translate(-1104.231711, -197.633664) "/>
  <path d="M595.573705,103.573945 C593.514225,102.746523 589.874214,101.353814 584.747688,99.4350505 C579.805646,97.5804835 573.091493,96.6407173 564.795036,96.6407173 C560.140363,96.6407173 556.032046,97.2256192 552.583615,98.3811571 C549.248712,99.4992471 546.54886,101.353814 544.331504,104.050069 C542.098184,106.758807 540.384611,110.61595 539.236908,115.51807 C538.053727,120.573549 537.454154,127.093065 537.454154,134.900079 L537.454154,284.829344 L504.853705,279.188964 L504.853705,234.873727 L470.725941,234.873727 L484.457581,206.718189 L504.853705,206.718189 L504.853705,134.593362 C504.853705,123.810125 505.745969,114.184208 507.502115,105.988449 C509.288416,97.6197147 512.460122,90.4493164 516.924989,84.6787597 C521.42356,78.863622 527.435255,74.4483257 534.796875,71.5523479 C542.050289,68.7009511 551.318835,67.2547454 562.345301,67.2547454 C571.688351,67.2547454 580.130267,68.3710521 587.436897,70.5751337 C594.766588,72.7845651 599.783133,74.5892015 602.773902,76.0924708 L604.228488,76.8253814 L597.79993,104.46913 L595.573705,103.573945 Z" transform="translate(537.477215, 176.042045) scale(-1, 1) rotate(-180.000000) translate(-537.477215, -176.042045) "/>
  <polygon transform="translate(567.442558, 131.287418) scale(-1, 1) rotate(-180.000000) translate(-567.442558, -131.287418) " points="589.546933 145.365187 545.338184 145.365187 545.338184 117.209649 575.815293 117.209649"/>
  <path d="M1022.18902,103.573945 C1020.13132,102.746523 1016.48953,101.353814 1011.363,99.4350505 C1006.42096,97.5804835 999.708583,96.6407173 991.410352,96.6407173 C986.755679,96.6407173 982.647362,97.2256192 979.198931,98.3811571 C975.864028,99.4992471 973.164176,101.353814 970.94682,104.050069 C968.7135,106.758807 966.999927,110.61595 965.852224,115.51807 C964.669043,120.573549 964.06947,127.093065 964.06947,134.900079 L964.06947,284.829344 L931.469021,279.188964 L931.469021,234.873727 L897.341257,234.873727 L911.074671,206.718189 L931.469021,206.718189 L931.469021,134.593362 C931.469021,123.810125 932.361285,114.184208 934.11743,105.988449 C935.903732,97.6197147 939.075438,90.4493164 943.540305,84.6787597 C948.038876,78.863622 954.05057,74.4483257 961.412191,71.5523479 C968.665605,68.7009511 977.934151,67.2547454 988.960617,67.2547454 C998.303667,67.2547454 1006.74558,68.3710521 1014.05399,70.5751337 C1021.3819,72.7845651 1026.39845,74.5892015 1029.38922,76.0924708 L1030.8438,76.8253814 L1024.41525,104.46913 L1022.18902,103.573945 Z" transform="translate(964.092530, 176.042045) scale(-1, 1) rotate(-180.000000) translate(-964.092530, -176.042045) "/>
  <polygon transform="translate(994.057874, 131.287418) scale(-1, 1) rotate(-180.000000) translate(-994.057874, -131.287418) " points="1016.16225 145.365187 971.9535 145.365187 971.9535 117.209649 1002.43061 117.209649"/>
  <path d="M1239.4959,213.390529 C1235.3592,222.436893 1207.65113,297.368536 1204.50603,307.980583 C1201.3769,318.523083 1198.65576,328.535962 1196.41712,337.744601 L1196.03396,339.322766 L1161.12569,339.322766 L1161.79799,336.729939 C1169.14542,308.421042 1178.49911,280.108579 1189.59831,252.580741 C1200.55027,225.402417 1212.52576,199.288686 1225.19662,174.943927 C1220.35924,164.487022 1214.93292,156.820884 1209.06491,152.154151 C1203.13482,147.444621 1194.70354,145.056865 1184.00347,145.056865 C1180.71824,145.056865 1177.33544,145.500892 1173.95264,146.376461 C1170.51486,147.264514 1167.69261,148.209629 1165.56217,149.183277 L1163.25967,150.233604 L1157.13799,123.080246 L1158.58193,122.354468 C1159.51145,121.88726 1160.96249,121.343372 1163.01842,120.692491 C1164.98211,120.068357 1167.20656,119.479889 1169.63501,118.950267 C1172.06168,118.420646 1174.54335,117.996235 1177.01082,117.687735 C1179.52974,117.370319 1181.98657,117.209828 1184.31036,117.209828 C1192.83387,117.209828 1200.61058,118.276204 1207.42584,120.380424 C1214.28368,122.50426 1220.54195,125.838914 1226.03034,130.291658 C1231.47085,134.710521 1236.50691,140.409748 1241.00193,147.232415 C1245.42955,153.962354 1249.76137,162.092134 1253.88388,171.413117 C1254.46571,172.766594 1255.03868,174.150386 1255.61696,175.51813 L1239.50654,213.420844 C1239.503,213.410145 1239.49945,213.399445 1239.4959,213.390529" transform="translate(1206.377478, 228.266297) scale(-1, 1) rotate(-180.000000) translate(-1206.377478, -228.266297) "/>
  <path d="M1274.54573,270.341609 L1274.17854,268.733129 C1269.1141,246.538954 1263.6594,224.605132 1257.96878,203.545096 C1253.74516,187.929285 1248.89536,172.026372 1243.51694,156.082445 L1260.04068,117.209649 C1268.1491,137.185477 1275.86905,158.443452 1283.04618,180.659025 C1292.00608,208.399069 1300.26351,237.710145 1307.58788,267.779096 L1308.21406,270.341609 L1274.54573,270.341609 Z" transform="translate(1275.865500, 193.775629) scale(-1, 1) rotate(-180.000000) translate(-1275.865500, -193.775629) "/>
</svg>
